<?xml version='1.0' encoding='utf-8'?>
<mxfile host="app.diagrams.net"><diagram name="Shapes"><mxGraphModel><root><mxCell id="0" /><mxCell id="1" parent="0" /><mxCell id="2" value="Square" style="shape=rectangle;whiteSpace=wrap;html=1;" vertex="1" parent="1"><mxGeometry x="40" y="40" width="80" height="80" as_="geometry" /></mxCell><mxCell id="3" value="Circle" style="shape=ellipse;whiteSpace=wrap;html=1;" vertex="1" parent="1"><mxGeometry x="160" y="40" width="80" height="80" as_="geometry" /></mxCell><mxCell id="4" value="Triangle" style="shape=triangle;whiteSpace=wrap;html=1;" vertex="1" parent="1"><mxGeometry x="280" y="40" width="80" height="80" as_="geometry" /></mxCell></root></mxGraphModel></diagram></mxfile>